<svg width="1904" height="993" viewBox="0 0 1904 993" fill="none" xmlns="http://www.w3.org/2000/svg">
<path d="M16 16L1904 16V993H16V16Z" fill="#FAFAFF"/>
<path d="M16 16L1316 16L997.5 993H16V16Z" fill="#4B4AEF"/>
<path d="M65.4809 620.657C-66.2958 553.852 -229.905 579.213 -295.237 600.244C-297.322 699.214 -300.241 898.637 -295.237 904.575C-290.233 910.513 495.006 907.049 887 904.575V808.08C803.597 748.698 724.364 698.595 480.411 724.575C294.072 744.418 230.202 704.162 65.4809 620.657Z" fill="white" fill-opacity="0.04"/>
<path d="M191.946 753.845C57.1691 709.892 -104.937 738.109 -169.143 757.712C-166.448 833.477 -159.738 986.075 -154.456 990.345C-149.174 994.614 634.561 949.582 1025.77 926.533L1021.11 852.772C934.985 811.881 853.469 777.859 611.184 810.885C426.12 836.112 360.416 808.787 191.946 753.845Z" fill="white" fill-opacity="0.04"/>
<path d="M180.717 166.265C-68.3777 155.524 -119.029 290.309 -199.663 259.18C-203.295 110.379 -248.478 -182.326 -242.383 -191.293C-236.288 -200.26 631.569 -183.14 1114.04 -182.381L1115.08 -37.2855C1013.07 52.6341 1094.44 76.1986 724.035 71.7231C462.355 68.5614 459.54 178.287 180.717 166.265Z" fill="white" fill-opacity="0.04"/>
<path d="M9.71698 107.965C-239.378 97.2242 -290.029 232.009 -370.663 200.879C-374.295 52.0791 -419.478 -240.626 -413.383 -249.593C-407.288 -258.56 460.569 -241.441 943.037 -240.681L944.077 -95.5857C842.07 -5.66608 923.445 17.8984 553.035 13.4229C291.355 10.2612 288.54 119.987 9.71698 107.965Z" fill="white" fill-opacity="0.04"/>
</svg>
