<svg width="1919" height="987" viewBox="0 0 1919 987" fill="none" xmlns="http://www.w3.org/2000/svg">
<path d="M-5 -1H1919V987H-5V-1Z" fill="#4B4AEF"/>
<path d="M285.481 611.982C153.704 544.698 -9.90461 570.241 -75.2369 591.423C-77.322 691.103 -80.2411 891.959 -75.2369 897.94C-70.2328 903.921 715.006 900.432 1107 897.94V800.752C1023.6 740.944 944.364 690.48 700.411 716.647C514.072 736.633 450.202 696.087 285.481 611.982Z" fill="white" fill-opacity="0.04"/>
<path d="M411.946 746.128C277.169 701.859 115.063 730.278 50.8567 750.022C53.5516 826.331 60.2619 980.026 65.5441 984.325C70.8264 988.625 854.561 943.271 1245.77 920.056L1241.11 845.764C1154.98 804.581 1073.47 770.314 831.184 803.577C646.12 828.985 580.416 801.464 411.946 746.128Z" fill="white" fill-opacity="0.04"/>
<path d="M400.717 154.327C151.622 143.509 100.971 279.262 20.3374 247.909C16.7046 98.0396 -28.4781 -196.768 -22.3833 -205.799C-16.2885 -214.831 851.569 -197.588 1334.04 -196.824L1335.08 -50.6858C1233.07 39.8797 1314.44 63.6134 944.035 59.1058C682.355 55.9214 679.54 166.435 400.717 154.327Z" fill="white" fill-opacity="0.04"/>
<path d="M229.717 95.6078C-19.3777 84.7901 -70.0291 220.543 -150.663 189.19C-154.295 39.3207 -199.478 -255.487 -193.383 -264.518C-187.288 -273.549 680.569 -256.307 1163.04 -255.542L1164.08 -109.405C1062.07 -18.8392 1143.44 4.8945 773.035 0.386889C511.355 -2.79756 508.54 107.717 229.717 95.6078Z" fill="white" fill-opacity="0.04"/>
</svg>
